<svg width="870" height="625" viewBox="0 0 870 625" fill="none" xmlns="http://www.w3.org/2000/svg">
<path d="M763.855 80.5761C828.22 102.767 760.699 287.021 842.054 313.829C923.408 340.636 801.013 323.459 747.369 482.479C626.304 841.357 535.222 403.436 390.304 435.792C245.387 468.149 -94.7111 578.151 26.3533 219.273C147.418 -139.605 648.278 40.7284 763.855 80.5761Z" fill="url(#paint0_diamond_2_128)"/>
<path d="M763.855 80.5761C828.22 102.767 760.699 287.021 842.054 313.829C923.408 340.636 801.013 323.459 747.369 482.479C626.304 841.357 535.222 403.436 390.304 435.792C245.387 468.149 -94.7111 578.151 26.3533 219.273C147.418 -139.605 648.278 40.7284 763.855 80.5761Z" fill="url(#paint1_diamond_2_128)"/>
<path d="M763.855 80.5761C828.22 102.767 760.699 287.021 842.054 313.829C923.408 340.636 801.013 323.459 747.369 482.479C626.304 841.357 535.222 403.436 390.304 435.792C245.387 468.149 -94.7111 578.151 26.3533 219.273C147.418 -139.605 648.278 40.7284 763.855 80.5761Z" fill="url(#paint2_radial_2_128)"/>
<defs>
<radialGradient id="paint0_diamond_2_128" cx="0" cy="0" r="1" gradientUnits="userSpaceOnUse" gradientTransform="translate(206.728 252.151) rotate(-30.1587) scale(561.018 883.421)">
<stop stop-color="#FE7503"/>
<stop offset="1" stop-color="#F79B2F" stop-opacity="0"/>
</radialGradient>
<radialGradient id="paint1_diamond_2_128" cx="0" cy="0" r="1" gradientUnits="userSpaceOnUse" gradientTransform="translate(254.826 461.129) rotate(-63.1934) scale(473.803 852.293)">
<stop stop-color="#C93740"/>
<stop offset="1" stop-color="#D23D45" stop-opacity="0"/>
</radialGradient>
<radialGradient id="paint2_radial_2_128" cx="0" cy="0" r="1" gradientUnits="userSpaceOnUse" gradientTransform="translate(97.3768 210.784) rotate(1.27564) scale(675.574 943.321)">
<stop stop-color="#1E1E1E"/>
<stop offset="0.411458" stop-color="#E044A1" stop-opacity="0"/>
<stop offset="1" stop-color="#E54837"/>
</radialGradient>
</defs>
</svg>
