<svg width="1382" height="784" viewBox="0 0 1382 784" fill="none" xmlns="http://www.w3.org/2000/svg">
<path d="M1354.59 171.097C1776.28 -340.783 1354.98 460.313 1486.99 510.127C1618.99 559.94 1421.01 517.487 1338.67 732.587C1152.84 1218.02 994.202 589.866 761.192 613.544C528.182 637.222 -153.434 704.913 32.396 219.476C218.226 -265.962 932.899 682.976 1354.59 171.097Z" fill="url(#paint0_diamond_8_172)"/>
<path d="M1354.59 171.097C1776.28 -340.783 1354.98 460.313 1486.99 510.127C1618.99 559.94 1421.01 517.487 1338.67 732.587C1152.84 1218.02 994.202 589.866 761.192 613.544C528.182 637.222 -153.434 704.913 32.396 219.476C218.226 -265.962 932.899 682.976 1354.59 171.097Z" fill="url(#paint1_diamond_8_172)"/>
<path d="M1354.59 171.097C1776.28 -340.783 1354.98 460.313 1486.99 510.127C1618.99 559.94 1421.01 517.487 1338.67 732.587C1152.84 1218.02 994.202 589.866 761.192 613.544C528.182 637.222 -153.434 704.913 32.396 219.476C218.226 -265.962 932.899 682.976 1354.59 171.097Z" fill="url(#paint2_radial_8_172)" fill-opacity="0.31"/>
<defs>
<radialGradient id="paint0_diamond_8_172" cx="0" cy="0" r="1" gradientUnits="userSpaceOnUse" gradientTransform="translate(282.399 67.9758) rotate(17.2128) scale(593.062 942.049)">
<stop stop-color="#031CFE" stop-opacity="0.71"/>
<stop offset="1" stop-color="#2A6199" stop-opacity="0.19"/>
</radialGradient>
<radialGradient id="paint1_diamond_8_172" cx="0" cy="0" r="1" gradientUnits="userSpaceOnUse" gradientTransform="translate(543.228 628.787) rotate(-59.2797) scale(653.006 1397.94)">
<stop stop-color="#3771C9"/>
<stop offset="1" stop-color="#3D4CD2" stop-opacity="0"/>
</radialGradient>
<radialGradient id="paint2_radial_8_172" cx="0" cy="0" r="1" gradientUnits="userSpaceOnUse" gradientTransform="translate(1191.47 158.085) rotate(65.4485) scale(175.621 171.092)">
<stop stop-color="#0A40FF"/>
<stop offset="1" stop-color="#CA00EB" stop-opacity="0.37"/>
</radialGradient>
</defs>
</svg>
