<svg width="1002" height="601" viewBox="0 0 1002 601" fill="none" xmlns="http://www.w3.org/2000/svg">
<g opacity="0.2">
<path d="M500.405 1117.96C384.779 796.421 520.017 596.682 399.791 607.114C279.564 617.546 30.5449 841.237 5.61337 502.883C-50.6523 -260.716 336.73 588.885 491.431 323.957C646.132 59.0291 1029.98 -305.109 1086.25 458.49C1142.51 1222.09 616.031 1439.49 500.405 1117.96Z" fill="url(#paint0_diamond_12_127)"/>
<path d="M500.405 1117.96C384.779 796.421 520.017 596.682 399.791 607.114C279.564 617.546 30.5449 841.237 5.61337 502.883C-50.6523 -260.716 336.73 588.885 491.431 323.957C646.132 59.0291 1029.98 -305.109 1086.25 458.49C1142.51 1222.09 616.031 1439.49 500.405 1117.96Z" fill="url(#paint1_diamond_12_127)"/>
<path d="M500.405 1117.96C384.779 796.421 520.017 596.682 399.791 607.114C279.564 617.546 30.5449 841.237 5.61337 502.883C-50.6523 -260.716 336.73 588.885 491.431 323.957C646.132 59.0291 1029.98 -305.109 1086.25 458.49C1142.51 1222.09 616.031 1439.49 500.405 1117.96Z" fill="url(#paint2_linear_12_127)"/>
</g>
<defs>
<radialGradient id="paint0_diamond_12_127" cx="0" cy="0" r="1" gradientUnits="userSpaceOnUse" gradientTransform="translate(934.688 570.351) rotate(132.391) scale(1861.36 2973.81)">
<stop stop-color="#D500E8"/>
<stop offset="0.54459" stop-color="#4D2CFC" stop-opacity="0"/>
</radialGradient>
<radialGradient id="paint1_diamond_12_127" cx="0" cy="0" r="1" gradientUnits="userSpaceOnUse" gradientTransform="translate(674.398 62.0576) rotate(72.4063) scale(722.166 1134.63)">
<stop stop-color="#D12C8D"/>
<stop offset="0.713542" stop-color="#F40000" stop-opacity="0.23"/>
</radialGradient>
<linearGradient id="paint2_linear_12_127" x1="1072.2" y1="558.691" x2="411.878" y2="752.184" gradientUnits="userSpaceOnUse">
<stop offset="0.143147" stop-color="#F83765"/>
<stop offset="0.645833" stop-color="#E338A6" stop-opacity="0.76"/>
<stop offset="1" stop-color="#AE36D5"/>
</linearGradient>
</defs>
</svg>
