<svg width="106" height="106" viewBox="0 0 106 106" fill="none" xmlns="http://www.w3.org/2000/svg">
<circle cx="53" cy="53" r="52.5" stroke="url(#paint0_linear_1051_16200)"/>
<path fill-rule="evenodd" clip-rule="evenodd" d="M58.1044 27.1977C57.4786 27.5233 57.4226 27.5911 56.1412 29.5705C55.2973 30.8742 54.5196 31.0308 52.5836 30.2865C49.3659 29.0495 48.2557 29.9604 48.5271 33.6142C48.6732 35.5816 48.2735 36.0673 46.0269 36.6527C42.8917 37.4695 42.4346 38.9791 44.5789 41.4351C46.0765 43.1502 46.083 43.8302 44.6181 45.5543C42.502 48.045 43.0155 49.5736 46.2166 50.3121C48.4724 50.8325 48.8248 51.3084 48.7268 53.7016C48.592 56.992 49.7927 57.8096 52.8786 56.5286C54.891 55.6931 55.6282 55.9008 56.7059 57.6069C58.3544 60.2165 60.0987 60.5304 61.4221 58.4559C62.5731 56.6516 62.7529 56.4205 63.1696 56.2107C63.9659 55.81 64.3975 55.8425 65.869 56.4144C68.9185 57.5994 70.0652 56.7906 69.9179 53.5588C69.8019 51.0142 70.057 50.647 72.3519 50.0561C75.5261 49.2388 76.0097 47.7395 73.8826 45.3109C72.362 43.575 72.3511 42.8628 73.8187 41.1355C75.9237 38.6579 75.431 37.1674 72.2539 36.402C69.9236 35.8405 69.5997 35.407 69.7042 32.9894C69.852 29.5683 68.626 28.8531 65.1523 30.3345C63.5323 31.0254 62.8143 30.7328 61.5683 28.874C60.2697 26.9369 59.4075 26.5198 58.1044 27.1977ZM60.1576 29.9803C61.8168 32.5142 63.3769 32.9937 66.1973 31.8367C67.9674 31.1106 67.8905 31.0449 67.8905 33.2803C67.8905 36.3352 68.6857 37.354 71.639 38.0832C73.6232 38.573 73.6188 38.5592 72.2944 40.1702C70.4201 42.4499 70.4532 44.1356 72.4156 46.3349C73.6766 47.7482 73.6431 47.8754 71.8915 48.3285C68.8066 49.1266 68.1143 50.0096 68.1143 53.1455V55.0835L67.8474 55.1208C67.7007 55.1414 67.0209 54.9421 66.3368 54.6779C63.5604 53.6057 61.924 54.1686 60.3942 56.7219C59.4093 58.3659 59.3648 58.3652 58.2627 56.6882C56.6257 54.1974 54.9456 53.6817 52.2424 54.8403C50.3982 55.6308 50.4721 55.6967 50.516 53.3002C50.5693 50.3998 49.6983 49.3006 46.8037 48.6154C44.788 48.1383 44.7946 48.1591 46.1424 46.5197C48.002 44.2578 47.9837 42.7097 46.0703 40.423C44.7419 38.8353 44.7436 38.8299 46.7332 38.3166C49.6169 37.5728 50.4268 36.4575 50.3595 33.3228L50.3226 31.6063L50.6073 31.5735C50.764 31.5554 51.4927 31.773 52.2265 32.0569C54.9068 33.0942 56.46 32.5307 58.0386 29.9485C59.0123 28.3556 59.0945 28.357 60.1576 29.9803ZM57.484 33.9301C49.7479 35.3555 46.848 44.889 52.5288 50.2209C59.9594 57.195 71.6578 49.6291 68.2868 40.0294C66.7988 35.792 62.0205 33.0943 57.484 33.9301ZM61.2326 35.8091C70.8121 38.3706 67.5112 52.8319 57.765 51.0006C49.0862 49.3699 49.3999 37.0035 58.1554 35.6093C58.7352 35.517 60.5905 35.6374 61.2326 35.8091ZM58.0539 40.0177L57.2602 40.8434L56.3091 40.6844C54.7569 40.425 54.183 40.5747 54.183 41.2391C54.183 41.5895 56.4272 45.2501 56.7241 45.384C57.0851 45.5468 61.3539 45.5458 61.7152 45.3829C61.9963 45.2562 64.2538 41.5873 64.2538 41.2573C64.2538 41.1638 64.1338 40.949 63.9873 40.7804L63.7206 40.4736L62.4097 40.6518L61.099 40.8301L60.6902 40.371C59.3321 38.8457 59.1978 38.8278 58.0539 40.0177ZM59.8724 41.7524L60.492 42.4299L61.2087 42.3572C61.6029 42.3172 61.908 42.3238 61.8867 42.3717C61.8655 42.4198 61.6549 42.7953 61.4188 43.2065L60.9895 43.954H59.2184H57.4474L56.9901 43.1691C56.7386 42.7374 56.5329 42.3622 56.5329 42.3354C56.5329 42.3086 56.8518 42.319 57.2416 42.3586L57.9505 42.4304L58.5534 41.7526C59.2792 40.9365 59.1266 40.9366 59.8724 41.7524ZM56.5075 46.6949C56.2019 47.0394 56.1771 47.3319 56.4271 47.6465L56.661 47.9407H59.1706C61.9304 47.9407 62.1277 47.8926 62.1277 47.2209C62.1277 46.5494 61.9293 46.5011 59.1798 46.5011C56.9386 46.5011 56.6617 46.5211 56.5075 46.6949ZM37.7914 60.5154C36.8293 60.7558 35.624 61.3777 34.9242 61.995C34.4153 62.4438 34.1914 62.5574 33.5149 62.7097C32.4815 62.9423 32.5426 62.9531 32.3802 62.5086C31.9816 61.4175 31.3842 61.3541 28.051 62.0493C25.6135 62.5576 25.3135 62.6868 25.3135 63.229C25.3135 63.7037 28.4731 78.5832 28.6217 78.8081C28.8984 79.2271 29.2262 79.2133 31.575 78.6834C34.5855 78.0042 34.9222 77.7972 35.0257 76.5611C35.0857 75.8459 35.0801 75.8475 37.399 75.8475H39.05L44.6863 77.2398C54.1696 79.5822 54.5211 79.5849 60.4115 77.362C66.5115 75.0599 67.5634 74.4597 73.9152 69.656C80.8288 64.4274 81.1879 64.0179 80.3797 62.2817C79.1971 59.7413 77.7557 59.9351 72.4783 63.3446C68.7619 65.7454 67.9339 66.1792 64.7573 67.3896C64.6958 67.4131 64.5524 67.2081 64.4388 66.9341C63.7306 65.2262 62.8822 64.9949 57.3259 64.9949H52.9031L51.5569 64.3397C49.5129 63.345 43.7213 61.1342 41.7736 60.605C40.8614 60.3571 38.626 60.3068 37.7914 60.5154ZM41.213 62.3265C43.1695 62.8243 48.6956 64.9293 50.9939 66.0523L52.4486 66.7631L57.1483 66.7925C62.7423 66.8277 63.135 66.9347 62.8665 68.3512C62.6537 69.4739 62.3129 69.5293 55.6023 69.5326C52.2535 69.5342 49.9478 69.5778 49.827 69.6418C49.5185 69.8051 49.34 70.325 49.4733 70.6719C49.7286 71.3367 49.5609 71.3212 56.1019 71.2849L62.0718 71.2517L62.7725 70.9315C63.3973 70.6459 64.0452 70.0974 64.3236 69.6183C64.3775 69.5254 65.589 68.9719 67.0156 68.3881L69.6097 67.3267L73.3307 64.926C77.4039 62.298 77.5944 62.2022 78.1895 62.483C79.5314 63.1162 79.3467 63.317 73.0287 68.0933C66.6339 72.9278 65.0047 73.8444 58.9946 75.9902C54.1588 77.7166 54.0475 77.7127 45.0634 75.4987L39.2447 74.0648L37.2865 74.0793C36.2095 74.0873 35.182 74.1022 35.0032 74.1124L34.6783 74.131L33.7667 69.4245L32.855 64.718L34.0646 64.4294C35.2304 64.1512 35.2979 64.1186 35.9217 63.5296C37.3083 62.2207 39.1506 61.8019 41.213 62.3265ZM31.5665 67.5696C32.0162 69.8994 32.5871 72.8416 32.8352 74.108C33.0832 75.3744 33.2656 76.4309 33.2404 76.4557C33.1644 76.531 30.0983 77.1868 30.0493 77.1383C29.9682 77.058 27.2896 64.1097 27.3432 64.0567C27.3992 64.0012 30.2939 63.3643 30.5768 63.3453C30.7156 63.336 30.9063 64.1503 31.5665 67.5696ZM46.1773 69.8071C45.5497 70.4283 46.1098 71.3071 47.1335 71.3071C48.1958 71.3071 48.7438 70.3272 48.0159 69.7291C47.6315 69.4132 46.5279 69.4601 46.1773 69.8071Z" fill="url(#paint1_linear_1051_16200)"/>
<defs>
<linearGradient id="paint0_linear_1051_16200" x1="53" y1="0" x2="53" y2="106" gradientUnits="userSpaceOnUse">
<stop stop-color="#F2BCAF"/>
<stop offset="1" stop-color="#B8ADF1"/>
</linearGradient>
<linearGradient id="paint1_linear_1051_16200" x1="53" y1="26.8945" x2="53" y2="79.1035" gradientUnits="userSpaceOnUse">
<stop stop-color="#F2BCAF"/>
<stop offset="1" stop-color="#B8ADF1"/>
</linearGradient>
</defs>
</svg>
