
<svg xmlns="http://www.w3.org/2000/svg" viewBox="0 0 629.3 82.2">
  <path fill="currentColor" d="M259.4 79.5V2.8h27.3v11.1a32.8 32.8 0 0 1 11.2-10A31 31 0 0 1 312.2.7a25.6 25.6 0 0 1 13 3.1c3.5 2.2 6.6 5.6 9.6 10.1a36.2 36.2 0 0 1 12-10.1A33.4 33.4 0 0 1 361.4.6a29 29 0 0 1 20.7 7 26 26 0 0 1 7.3 19.6v52.3H360v-41c0-4.8-.8-8.4-2.3-10.5-1.7-2.2-4.2-3.3-7.8-3.3-3.7 0-6.4 1.2-8 3.4-1.7 2.2-2.6 5.7-2.6 10.6v40.8h-29.5v-40c0-5.3-.8-9-2.5-11.3q-2.4-3.5-8-3.5a9 9 0 0 0-7.7 3.5 16.6 16.6 0 0 0-2.5 10v41.3ZM504.2 56.7H533a29.8 29.8 0 0 1-13.7 19c-7 4.4-16.4 6.5-28 6.5-13 0-23.2-3.7-30.8-11A39 39 0 0 1 449 41.8c0-12.8 4-23 11.7-30.5Q472.4 0 492.5 0c13.4 0 24 4 31.5 12.2 7.7 8 11.5 19.4 11.5 33.8v1.8H479c.1 5 1.4 8.8 3.8 11.3 2.4 2.8 5.8 4.1 10.1 4.1a14.1 14.1 0 0 0 7.3-1.7 7.9 7.9 0 0 0 4-4.8Zm-25-24.2h26.7c-.3-4.8-1.7-8.4-4-10.7-2.2-2.4-5.4-3.6-9.8-3.6A12 12 0 0 0 483 22c-2.3 2.5-3.7 6-3.8 10.5ZM547.8 79.5V2.8h27.3v11.1a36.9 36.9 0 0 1 11.8-10A32.6 32.6 0 0 1 601.6.8 31.2 31.2 0 0 1 613.9 3a24.1 24.1 0 0 1 14 17c1 4 1.4 10.5 1.4 19.6v39.9h-30V39.7c0-5.8-.8-9.8-2.3-12-1.5-2.2-4.1-3.3-8-3.3a10 10 0 0 0-8.4 3.8 20.3 20.3 0 0 0-2.8 11.7v39.6ZM130 56V2.8H99.8v76.7h65.8V56H130zM175.3 2.8H199v46.6c0 4.4.9 7.4 2.6 9.2 1.9 2 4.8 2.8 9 2.8 4 0 6.9-.9 8.6-2.7 1.8-1.8 2.6-4.9 2.6-9.3V2.8h24v48.6c0 9.4-3 16.6-9 21.6s-14.9 7.6-26.2 7.6a40.4 40.4 0 0 1-26.4-7.6c-6.1-5-9-12.2-9-21.6ZM406.6 79.3V28h30.3v51.3Z"/>
  <path fill="#e7630c" d="M406.6 0h30.3v22h-30.3zM0 2.2v76.6h89.6V2.2Zm69.3 57.5h-49V21.2h49Z"/>
</svg>
