<svg class="_circle" width="1599" height="607" viewBox="0 0 1599 607" fill="none" xmlns="http://www.w3.org/2000/svg">
  <path d="M1195.5 38.501C1626.33 -177.634 1405.86 587.786 1550.62 648.994C1695.37 710.202 1476.63 654.837 1373.8 894.71C1141.73 1436.05 996.702 720.606 735.502 738.625C474.301 756.643 -289.697 807.575 -57.6265 266.23C174.444 -275.115 764.671 254.636 1195.5 38.501Z" fill="url(#paint0_diamond_12_128)" />
  <path d="M1195.5 38.501C1626.33 -177.634 1405.86 587.786 1550.62 648.994C1695.37 710.202 1476.63 654.837 1373.8 894.71C1141.73 1436.05 996.702 720.606 735.502 738.625C474.301 756.643 -289.697 807.575 -57.6265 266.23C174.444 -275.115 764.671 254.636 1195.5 38.501Z" fill="url(#paint1_diamond_12_128)" />
  <path d="M1195.5 38.501C1626.33 -177.634 1405.86 587.786 1550.62 648.994C1695.37 710.202 1476.63 654.837 1373.8 894.71C1141.73 1436.05 996.702 720.606 735.502 738.625C474.301 756.643 -289.697 807.575 -57.6265 266.23C174.444 -275.115 764.671 254.636 1195.5 38.501Z" fill="url(#paint2_linear_12_128)" fill-opacity="0.81" />
  <defs>
    <radialGradient id="paint0_diamond_12_128" cx="0" cy="0" r="1" gradientUnits="userSpaceOnUse" gradientTransform="translate(448.282 541.857) rotate(-67.8688) scale(325.04 507.563)">
      <stop stop-color="#E3E3E3" />
      <stop offset="1" stop-color="#832A99" stop-opacity="0.19" />
    </radialGradient>
    <radialGradient id="paint1_diamond_12_128" cx="0" cy="0" r="1" gradientUnits="userSpaceOnUse" gradientTransform="translate(491.52 747.68) rotate(-57.1853) scale(739.598 1557.91)">
      <stop stop-color="#C48CD3" />
      <stop offset="1" stop-color="#DC8DE3" stop-opacity="0" />
    </radialGradient>
    <linearGradient id="paint2_linear_12_128" x1="1514.33" y1="723.747" x2="1461.57" y2="329.563" gradientUnits="userSpaceOnUse">
      <stop stop-color="white" stop-opacity="0" />
      <stop offset="1" stop-color="#DC57F2" stop-opacity="0.24" />
    </linearGradient>
  </defs>
</svg>
