<svg class="_circle2" width="716" height="765" viewBox="0 0 716 765" fill="none" xmlns="http://www.w3.org/2000/svg">
  <path d="M353.274 10.5701C405.278 -34.4707 510.372 93.0351 575.147 35.6252C639.923 -21.7847 560.281 73.5405 653.495 179.727C863.86 419.37 477.551 325.9 423.79 459.145C370.03 592.389 270.068 918.265 59.7027 678.622C-150.662 438.98 259.894 91.4484 353.274 10.5701Z" fill="url(#paint0_diamond_8_174)" />
  <path d="M353.274 10.5701C405.278 -34.4707 510.372 93.0351 575.147 35.6252C639.923 -21.7847 560.281 73.5405 653.495 179.727C863.86 419.37 477.551 325.9 423.79 459.145C370.03 592.389 270.068 918.265 59.7027 678.622C-150.662 438.98 259.894 91.4484 353.274 10.5701Z" fill="url(#paint1_diamond_8_174)" />
  <path d="M353.274 10.5701C405.278 -34.4707 510.372 93.0351 575.147 35.6252C639.923 -21.7847 560.281 73.5405 653.495 179.727C863.86 419.37 477.551 325.9 423.79 459.145C370.03 592.389 270.068 918.265 59.7027 678.622C-150.662 438.98 259.894 91.4484 353.274 10.5701Z" fill="url(#paint2_radial_8_174)" fill-opacity="0.31" />
  <defs>
    <radialGradient id="paint0_diamond_8_174" cx="0" cy="0" r="1" gradientUnits="userSpaceOnUse" gradientTransform="translate(182.889 541.066) rotate(-84.8276) scale(515.214 818.393)">
      <stop stop-color="#031CFE" />
      <stop offset="1" stop-color="#2A6199" stop-opacity="0.19" />
    </radialGradient>
    <radialGradient id="paint1_diamond_8_174" cx="0" cy="0" r="1" gradientUnits="userSpaceOnUse" gradientTransform="translate(369.752 581.81) rotate(-121.505) scale(400.6 857.594)">
      <stop stop-color="#3771C9" />
      <stop offset="1" stop-color="#3D4CD2" stop-opacity="0" />
    </radialGradient>
    <radialGradient id="paint2_radial_8_174" cx="0" cy="0" r="1" gradientUnits="userSpaceOnUse" gradientTransform="translate(299.58 95.386) rotate(3.22361) scale(107.738 104.96)">
      <stop stop-color="#0A40FF" />
      <stop offset="1" stop-color="#0034EB" stop-opacity="0.37" />
    </radialGradient>
  </defs>
</svg>
